<?xml version="1.0" ?><svg style="enable-background:new 0 0 64 64;" version="1.1" viewBox="0 0 64 64" xml:space="preserve" xmlns="http://www.w3.org/2000/svg" xmlns:xlink="http://www.w3.org/1999/xlink"><style type="text/css">
	.st0{fill:#231F20;}
</style><g id="Guide"/><g id="search"/><g id="price_tag"/><g id="coupon"/><g id="credit_card"/><g id="shipping"/><g id="notification"/><g id="money"/><g id="discount"/><g id="wishlist"/><g id="location"/><g id="shopping_bag_1_"/><g id="calculator"/><g id="mobile_ecommerce"/><g id="koin"/><g id="setting"/><g id="online_shop"/><g id="return"/><g id="box"/><g id="internet"/><g id="info"/><g id="gift"/><g id="basket_1_"><g><path class="st0" d="M56,25h-3.4l-13-18.5c-0.9-1.5-3.1-2-4.8-1.1c-0.9,0.4-1.5,1.2-1.8,2.1c-0.2,0.8-0.1,1.6,0.4,2.4L44.7,25    H19.2L30.5,9.8C31,9,31.1,8.2,30.9,7.4c-0.2-0.9-0.8-1.6-1.7-2c-1.7-0.8-3.8-0.3-4.7,1.1L11.5,25H8c-1.7,0-3,1.3-3,3v4    c0,1.7,1.3,3,3,3h0.2C8,35.5,8,36,8,36.5l3.4,20c0.2,1.5,1.5,2.5,3,2.5h35.2c1.5,0,2.7-1.1,3-2.5l3.4-20c0.1-0.5,0-1-0.1-1.5H56    c1.7,0,3-1.3,3-3v-4C59,26.3,57.7,25,56,25z M35,8c0.1-0.3,0.3-0.6,0.7-0.8C36,7.1,36.3,7,36.6,7c0.5,0,1.1,0.2,1.3,0.6l12.1,17.3    l-2.9,0l-12-16.3C35,8.4,35,8.2,35,8z M26.2,7.6c0.4-0.6,1.4-0.8,2.1-0.5c0.3,0.2,0.6,0.4,0.7,0.7c0.1,0.2,0,0.5-0.1,0.7L16.7,25    h-2.8L26.2,7.6z M53.8,35.4c0.2,0.2,0.3,0.5,0.2,0.8l-3.4,20c-0.1,0.5-0.5,0.8-1,0.8H14.4c-0.5,0-0.9-0.4-1-0.8l-3.4-20    c0-0.3,0-0.6,0.2-0.8c0.2-0.2,0.5-0.4,0.8-0.4H53C53.3,35,53.6,35.1,53.8,35.4z M57,32c0,0.6-0.4,1-1,1h-3H11H8c-0.6,0-1-0.4-1-1    v-4c0-0.6,0.4-1,1-1h4h5.2h29.4h0H56c0.6,0,1,0.4,1,1V32z"/><path class="st0" d="M31.9,54h0.3c1.6,0,2.9-1.3,2.9-2.9V40.9c0-1.6-1.3-2.9-2.9-2.9h-0.3c-1.6,0-2.9,1.3-2.9,2.9v10.3    C29,52.7,30.3,54,31.9,54z M31,40.9c0-0.5,0.4-0.9,0.9-0.9h0.3c0.5,0,0.9,0.4,0.9,0.9v10.3c0,0.5-0.4,0.9-0.9,0.9h-0.3    c-0.5,0-0.9-0.4-0.9-0.9V40.9z"/><path class="st0" d="M21.9,54h0.3c1.6,0,2.9-1.3,2.9-2.9V40.9c0-1.6-1.3-2.9-2.9-2.9h-0.3c-1.6,0-2.9,1.3-2.9,2.9v10.3    C19,52.7,20.3,54,21.9,54z M21,40.9c0-0.5,0.4-0.9,0.9-0.9h0.3c0.5,0,0.9,0.4,0.9,0.9v10.3c0,0.5-0.4,0.9-0.9,0.9h-0.3    c-0.5,0-0.9-0.4-0.9-0.9V40.9z"/><path class="st0" d="M41.9,54h0.3c1.6,0,2.9-1.3,2.9-2.9V40.9c0-1.6-1.3-2.9-2.9-2.9h-0.3c-1.6,0-2.9,1.3-2.9,2.9v10.3    C39,52.7,40.3,54,41.9,54z M41,40.9c0-0.5,0.4-0.9,0.9-0.9h0.3c0.5,0,0.9,0.4,0.9,0.9v10.3c0,0.5-0.4,0.9-0.9,0.9h-0.3    c-0.5,0-0.9-0.4-0.9-0.9V40.9z"/></g></g><g id="calender"/><g id="store"/><g id="wallet"/></svg>